# xmcd
#
# Track frame offsets:
#   150
#   19456
#   36772
#   58646
#   79107
#   94586
#   109771
#   127981
#   148485
#   167414
#   180559
#   199094
#   217706
#   236375
#   257596
#   275928
#   292747
#   314655
#   336657
#
# Disc length: 4722 seconds
#
# Revision: 0
# Processed by: cddbd v1.5.2PL0 Copyright (c) Steve Scherf et al.
# Submitted via: GXTranscoder 2.0.1939
#
DISCID=19127013
DTITLE=timothy james - make it happen
DYEAR=2011
DGENRE=Blues
TTITLE0=angels walk
TTITLE1=ain´t it funny
TTITLE2=the best
TTITLE3=it all leads back to you
TTITLE4=time to fall in love
TTITLE5=let me make this right
TTITLE6=used to be
TTITLE7=together
TTITLE8=make it happen
TTITLE9=take you home
TTITLE10=build you a house
TTITLE11=bigger than that
TTITLE12=winter story
TTITLE13=my heart´s at heaven´s door
TTITLE14=did i touch you
TTITLE15=rembrandt´s eyes
TTITLE16=la piu bella cosa
TTITLE17=no one will love you more
TTITLE18=chilli choclate cream
EXTD=
EXTT0=
EXTT1=
EXTT2=
EXTT3=
EXTT4=
EXTT5=
EXTT6=
EXTT7=
EXTT8=
EXTT9=
EXTT10=
EXTT11=
EXTT12=
EXTT13=
EXTT14=
EXTT15=
EXTT16=
EXTT17=
EXTT18=
PLAYORDER=
